<svg width="30" height="22" viewBox="0 0 30 22" fill="none" xmlns="http://www.w3.org/2000/svg">
<path d="M26.5014 0H3.49863C1.56609 0 0 1.56609 0 3.4981V17.7673C0 19.6993 1.56609 21.2654 3.49863 21.2654H26.5014C28.4334 21.2654 30 19.6993 30 17.7673V3.4981C30 1.56609 28.4334 0 26.5014 0ZM28.3295 18.7098L27.6635 19.4985L18.3373 11.887L16.893 13.2613C15.8226 14.2443 14.1775 14.2443 13.107 13.2613L11.6627 11.887L2.33648 19.4985L1.67051 18.7098L10.4268 10.7108L1.61314 2.42771L2.13422 1.7373L15 11.4858L27.8657 1.7373L28.3864 2.42771L19.5733 10.7108L28.3295 18.7098Z" fill="white"/>
</svg>
